<?xml version="1.0" standalone="no"?>
<!DOCTYPE svg PUBLIC "-//W3C//DTD SVG 20010904//EN"
 "http://www.w3.org/TR/2001/REC-SVG-20010904/DTD/svg10.dtd">
<svg version="1.0" xmlns="http://www.w3.org/2000/svg"
 width="250.000000pt" height="250.000000pt" viewBox="0 0 250.000000 250.000000"
 preserveAspectRatio="xMidYMid meet">

<g transform="translate(0.000000,250.000000) scale(0.100000,-0.100000)"
fill="#000000" stroke="none">
<path d="M100 1840 l0 -550 555 0 555 0 0 550 0 550 -555 0 -555 0 0 -550z
m431 158 c1 -324 4 -349 59 -385 59 -41 161 -25 192 30 10 16 14 106 18 332
l5 310 120 0 120 0 0 -315 c-1 -301 -2 -317 -23 -371 -32 -79 -81 -132 -159
-171 -60 -29 -78 -33 -171 -36 -167 -7 -266 30 -339 126 -58 77 -63 110 -63
459 l0 313 120 0 120 0 1 -292z"/>
<path d="M1320 1505 l0 -205 45 0 44 0 3 127 3 127 80 -127 80 -127 48 0 47 0
-2 203 -3 202 -42 3 -42 3 -3 -128 -3 -128 -84 128 -83 127 -44 0 -44 0 0
-205z"/>
<path d="M1730 1505 l0 -205 45 0 45 0 0 205 0 205 -45 0 -45 0 0 -205z"/>
<path d="M1860 1670 l0 -40 45 0 45 0 0 -165 0 -165 45 0 45 0 0 165 0 165 50
0 50 0 0 40 0 40 -140 0 -140 0 0 -40z"/>
<path d="M2177 1703 c-4 -3 -7 -96 -7 -205 l0 -198 115 0 115 0 0 40 0 40 -71
0 -70 0 3 43 3 42 68 3 67 3 0 34 0 34 -67 3 -68 3 0 40 0 40 68 3 67 3 0 39
0 40 -108 0 c-60 0 -112 -3 -115 -7z"/>
<path d="M100 635 l0 -555 555 0 555 0 0 555 0 555 -555 0 -555 0 0 -555z
m798 420 c45 -14 82 -29 82 -34 0 -17 -69 -176 -77 -176 -4 1 -39 11 -77 23
-72 23 -165 29 -197 12 -12 -7 -19 -21 -19 -40 0 -36 22 -52 153 -114 164 -78
217 -143 217 -266 0 -134 -73 -224 -215 -266 -83 -24 -267 -16 -347 15 l-58
22 0 110 0 110 28 -15 c15 -7 56 -23 92 -34 164 -49 276 -27 256 51 -5 21 -30
38 -134 91 -186 94 -232 151 -232 281 0 74 18 126 58 168 90 95 285 121 470
62z"/>
<path d="M1320 635 l0 -555 555 0 555 0 -2 553 -3 552 -552 3 -553 2 0 -555z"/>
</g>
</svg>
