<?xml version="1.0" encoding="UTF-8" standalone="no"?>
<svg
   xmlns:dc="http://purl.org/dc/elements/1.1/"
   xmlns:cc="http://creativecommons.org/ns#"
   xmlns:rdf="http://www.w3.org/1999/02/22-rdf-syntax-ns#"
   xmlns:svg="http://www.w3.org/2000/svg"
   xmlns="http://www.w3.org/2000/svg"
   xmlns:sodipodi="http://sodipodi.sourceforge.net/DTD/sodipodi-0.dtd"
   xmlns:inkscape="http://www.inkscape.org/namespaces/inkscape"
   version="1.0"
   width="250.000000pt"
   height="250.000000pt"
   viewBox="0 0 250.000000 250.000000"
   preserveAspectRatio="xMidYMid meet"
   id="svg104"
   sodipodi:docname="Logo-Padrão.svg"
   inkscape:version="0.92.1 r15371">
  <metadata
     id="metadata110">
    <rdf:RDF>
      <cc:Work
         rdf:about="">
        <dc:format>image/svg+xml</dc:format>
        <dc:type
           rdf:resource="http://purl.org/dc/dcmitype/StillImage" />
        <dc:title></dc:title>
      </cc:Work>
    </rdf:RDF>
  </metadata>
  <defs
     id="defs108">
    <filter
       style="color-interpolation-filters:sRGB;"
       inkscape:label="Colorize"
       id="filter145">
      <feComposite
         in2="SourceGraphic"
         operator="arithmetic"
         k1="0"
         k2="1"
         result="composite1"
         id="feComposite131" />
      <feColorMatrix
         in="composite1"
         values="1"
         type="saturate"
         result="colormatrix1"
         id="feColorMatrix133" />
      <feFlood
         flood-opacity="1"
         flood-color="rgb(149,37,151)"
         result="flood1"
         id="feFlood135" />
      <feBlend
         in="flood1"
         in2="colormatrix1"
         mode="multiply"
         result="blend1"
         id="feBlend137" />
      <feBlend
         in2="blend1"
         mode="screen"
         result="blend2"
         id="feBlend139" />
      <feColorMatrix
         in="blend2"
         values="1"
         type="saturate"
         result="colormatrix2"
         id="feColorMatrix141" />
      <feComposite
         in="colormatrix2"
         in2="SourceGraphic"
         operator="in"
         k2="1"
         result="composite2"
         id="feComposite143" />
    </filter>
  </defs>
  <sodipodi:namedview
     pagecolor="#ffffff"
     bordercolor="#666666"
     borderopacity="1"
     objecttolerance="10"
     gridtolerance="10"
     guidetolerance="10"
     inkscape:pageopacity="0"
     inkscape:pageshadow="2"
     inkscape:window-width="1306"
     inkscape:window-height="728"
     id="namedview106"
     showgrid="false"
     inkscape:zoom="1.7435064"
     inkscape:cx="191.0423"
     inkscape:cy="132.77912"
     inkscape:window-x="60"
     inkscape:window-y="0"
     inkscape:window-maximized="1"
     inkscape:current-layer="g102" />
  <g
     transform="translate(0.000000,250.000000) scale(0.100000,-0.100000)"
     id="g102"
     stroke="none"
     fill="#000000">
    <path
       d="M100 1840 l0 -550 555 0 555 0 0 550 0 550 -555 0 -555 0 0 -550z m431 158 c1 -324 4 -349 59 -385 59 -41 161 -25 192 30 10 16 14 106 18 332 l5 310 120 0 120 0 0 -315 c-1 -301 -2 -317 -23 -371 -32 -79 -81 -132 -159 -171 -60 -29 -78 -33 -171 -36 -167 -7 -266 30 -339 126 -58 77 -63 110 -63 459 l0 313 120 0 120 0 1 -292z"
       id="path88"
       style="fill:#952597;fill-opacity:1" />
    <path
       d="M1320 1505 l0 -205 45 0 44 0 3 127 3 127 80 -127 80 -127 48 0 47 0 -2 203 -3 202 -42 3 -42 3 -3 -128 -3 -128 -84 128 -83 127 -44 0 -44 0 0 -205z"
       id="path90"
       style="fill:#952597;fill-opacity:1" />
    <path
       d="M1730 1505 l0 -205 45 0 45 0 0 205 0 205 -45 0 -45 0 0 -205z"
       id="path92"
       style="fill:#952597;fill-opacity:1" />
    <path
       d="M1860 1670 l0 -40 45 0 45 0 0 -165 0 -165 45 0 45 0 0 165 0 165 50 0 50 0 0 40 0 40 -140 0 -140 0 0 -40z"
       id="path94"
       style="fill:#952597;fill-opacity:1" />
    <path
       d="M2177 1703 c-4 -3 -7 -96 -7 -205 l0 -198 115 0 115 0 0 40 0 40 -71 0 -70 0 3 43 3 42 68 3 67 3 0 34 0 34 -67 3 -68 3 0 40 0 40 68 3 67 3 0 39 0 40 -108 0 c-60 0 -112 -3 -115 -7z"
       id="path96"
       style="fill:#952597;fill-opacity:1" />
    <path
       d="M100 635 l0 -555 555 0 555 0 0 555 0 555 -555 0 -555 0 0 -555z m798 420 c45 -14 82 -29 82 -34 0 -17 -69 -176 -77 -176 -4 1 -39 11 -77 23 -72 23 -165 29 -197 12 -12 -7 -19 -21 -19 -40 0 -36 22 -52 153 -114 164 -78 217 -143 217 -266 0 -134 -73 -224 -215 -266 -83 -24 -267 -16 -347 15 l-58 22 0 110 0 110 28 -15 c15 -7 56 -23 92 -34 164 -49 276 -27 256 51 -5 21 -30 38 -134 91 -186 94 -232 151 -232 281 0 74 18 126 58 168 90 95 285 121 470 62z"
       id="path98"
       style="filter:url(#filter145);fill:#952597;fill-opacity:1" />
    <path
       d="M1320 635 l0 -555 555 0 555 0 -2 553 -3 552 -552 3 -553 2 0 -555z"
       id="path100"
       style="fill:#952597;fill-opacity:1" />
  </g>
</svg>
