<svg id="Layer_1" enable-background="new 0 0 511.994 511.994" height="512" viewBox="0 0 511.994 511.994" width="512" xmlns="http://www.w3.org/2000/svg"><g><g clip-rule="evenodd" fill-rule="evenodd"><path d="m300.121 341.527-26.737-49.183c-1.79-3.29-4.529-6.112-8.081-8.007-9.658-5.151-21.663-1.497-26.814 8.161l-25.811 48.451-54.454 10.12c-3.925.59-7.711 2.359-10.788 5.32-7.898 7.597-8.141 20.16-.544 28.058l38.128 39.545-7.099 54.125c-.854 4.149-.398 8.601 1.6 12.703 4.807 9.872 16.708 13.978 26.581 9.171l49.334-24.014 50.571 24.091c3.384 1.616 7.277 2.262 11.27 1.71 10.86-1.502 18.446-11.525 16.944-22.384l-7.601-54.395 37.717-39.783c3.053-2.848 5.238-6.677 6.011-11.107 1.888-10.817-5.349-21.117-16.166-23.005z" fill="#ffc144"/><path d="m174.247 239.3v-229.3h-118.25v181.999z" fill="#ff5a58"/><path d="m174.247 10v229.3l81.75 32.701 81.75-32.701v-229.3h-81.75z" fill="#fff"/><path d="m337.747 10v229.3l118.25-47.301v-181.999z" fill="#ff5a58"/></g><g><path d="m455.997 0h-400c-5.523 0-10 4.478-10 10v181.998c0 4.089 2.489 7.766 6.286 9.285l187.976 75.193c-4.429 2.737-8.08 6.601-10.597 11.32l-23.547 44.201-49.566 9.211c-6.065.95-11.611 3.705-16.047 7.974-11.859 11.407-12.226 30.337-.811 42.206l34.786 36.078-6.43 49.024c-1.229 6.384-.374 12.843 2.482 18.707 5.168 10.614 15.833 16.798 26.915 16.797 4.384 0 8.835-.968 13.034-3.013l45.004-21.906 46.217 22.019c5.244 2.501 11.104 3.4 16.947 2.59 16.304-2.255 27.734-17.354 25.478-33.674l-6.936-49.625 34.213-36.088c4.648-4.433 7.688-10.119 8.797-16.469 2.832-16.232-8.068-31.743-24.274-34.571l-49.316-8.736-24.438-44.953c-.001-.001-.002-.002-.002-.003-2.481-4.559-6.081-8.351-10.473-11.072l188.017-75.209c3.797-1.52 6.286-5.196 6.286-9.285v-181.999c-.001-5.522-4.478-10-10.001-10zm-390 20h98.25v59.646c0 5.522 4.477 10 10 10s10-4.478 10-10v-59.646h143.5v212.529l-71.75 28.701-71.75-28.701v-62.883c0-5.522-4.477-10-10-10s-10 4.478-10 10v54.883l-98.25-39.302zm225.337 326.304c1.454 2.673 4.046 4.54 7.042 5.07l54.084 9.581c2.6.453 4.867 1.893 6.385 4.052 1.518 2.16 2.104 4.782 1.65 7.383-.373 2.135-1.404 4.042-2.982 5.514-.149.14-.295.284-.436.433l-37.717 39.783c-2.094 2.208-3.068 5.25-2.646 8.264l7.6 54.381c.744 5.381-3.028 10.365-8.407 11.108-1.954.271-3.891-.016-5.601-.832l-50.57-24.092c-2.746-1.308-5.941-1.296-8.677.037l-49.335 24.014c-4.9 2.386-10.828.342-13.213-4.558-.963-1.979-1.239-4.16-.796-6.308.049-.237.089-.477.121-.717l7.099-54.125c.396-3.018-.604-6.051-2.716-8.242l-38.12-39.535c-3.763-3.913-3.642-10.156.27-13.92 1.479-1.422 3.326-2.334 5.342-2.638.114-.017.228-.036.341-.057l54.454-10.119c2.992-.557 5.568-2.444 6.999-5.131l25.809-48.447c1.234-2.313 3.296-4.009 5.805-4.772.945-.288 1.911-.431 2.871-.431 1.59 0 3.166.391 4.609 1.161 1.7.906 3.084 2.275 4 3.959zm154.663-161.076-98.25 39.301v-204.529h98.25z"/><path d="m174.247 134.65c5.523 0 10-4.478 10-10v-.008c0-5.522-4.477-9.996-10-9.996s-10 4.481-10 10.004 4.477 10 10 10z"/></g></g></svg>